<?xml version="1.0" encoding="utf-8"?>
<!-- Generator: Adobe Illustrator 13.0.0, SVG Export Plug-In  -->
<!DOCTYPE svg PUBLIC "-//W3C//DTD SVG 1.1//EN" "http://www.w3.org/Graphics/SVG/1.1/DTD/svg11.dtd" [
	<!ENTITY ns_flows "http://ns.adobe.com/Flows/1.0/">
]>
<svg version="1.1"
	 xmlns="http://www.w3.org/2000/svg" xmlns:xlink="http://www.w3.org/1999/xlink" xmlns:a="http://ns.adobe.com/AdobeSVGViewerExtensions/3.0/"
	 x="0px" y="0px" width="161px" height="67px" viewBox="-0.628 -0.72 161 67" enable-background="new -0.628 -0.72 161 67"
	 xml:space="preserve">
<defs>
</defs>
<path fill="#DCD9C6" d="M79.958,36.378l-10.961-3.861c-3.463-1.203-5.176-4.161-5.176-7.477V0c1.707,0.271,8.216,1.219,16.075,1.238
	C87.755,1.219,94.263,0.271,95.971,0v25.04c0,3.316-1.711,6.273-5.174,7.477L79.958,36.378z"/>
<path fill-rule="evenodd" clip-rule="evenodd" fill="#FFFFFF" d="M93.687,2.539l0.163-0.028v22.508c0,2.376-1.422,4.568-4.048,5.481
	l-9.847,3.424L70.109,30.5c-2.627-0.914-4.048-3.105-4.048-5.481V2.511l0.162,0.028c0.745,0.13,5.017,0.809,13.399,0.844h0.666
	C88.67,3.348,92.941,2.669,93.687,2.539"/>
<path fill-rule="evenodd" clip-rule="evenodd" fill="#005E99" d="M79.597,3.565C71.2,3.531,66.92,2.85,66.174,2.72v22.343
	c0,2.316,1.383,4.457,3.955,5.351l9.801,3.408l9.8-3.408c2.572-0.894,3.955-3.035,3.955-5.351V2.72
	c-0.746,0.13-5.026,0.811-13.421,0.845H79.597z M79.93,2.278c9.292-0.024,14.955-1.02,14.955-1.02v23.771
	c0,2.903-1.47,5.394-4.426,6.421L79.99,35.18l-10.589-3.73c-2.955-1.027-4.427-3.518-4.427-6.421V1.258
	C64.974,1.258,70.637,2.254,79.93,2.278"/>
<path fill-rule="evenodd" clip-rule="evenodd" fill="#FFFFFF" d="M23.036,38.414c0.046,0,0.114-0.273,0-0.251
	c-0.887,0.114-0.887,0.159-2.092,0.159c-0.887,0-1.545-0.068-2.182-0.159c-0.136-0.022-0.068,0.251-0.023,0.251
	c1.137,0.113,1.501,0.34,1.501,0.932c0,0.591-0.273,1.318-0.796,2.66l-3.229,8.391l-2.729-8.276
	c-0.455-1.343-0.682-2.184-0.682-2.684c0-0.704,0.455-0.909,1.887-1.022c0.045,0,0.091-0.273-0.023-0.251
	c-0.864,0.114-2.546,0.159-3.751,0.159c-0.864,0-1.728-0.068-2.364-0.159c-0.114-0.022-0.068,0.251-0.022,0.251
	c1.728,0.158,2.114,0.909,3.069,3.706l0.113,0.296L8.37,50.373L5.164,42.12c-0.295-0.774-0.818-2.319-0.818-2.797
	c0-0.638,0.568-0.819,1.659-0.909c0.046,0,0.114-0.273,0-0.251c-0.863,0.114-2.364,0.159-3.569,0.159
	c-0.864,0-1.729-0.068-2.365-0.159c-0.113-0.022-0.068,0.251-0.023,0.251c1.796,0.158,2.16,0.954,3.229,3.706l4.275,10.959
	c0.045,0.114,0.227,0.091,0.25,0.022l4.207-9.845l3.388,9.822c0.046,0.114,0.228,0.091,0.25,0.022l4.457-10.981
	C21.148,39.505,21.626,38.551,23.036,38.414"/>
<path fill-rule="evenodd" clip-rule="evenodd" fill="#FFFFFF" d="M30.882,50.623c0-0.045-0.272-0.045-0.295-0.022
	c-0.25,1.136-0.318,1.546-2.911,1.546h-0.863c-0.774,0-0.956-0.205-0.956-2.479V47.35h1.183c1.842,0,1.978,0.113,2.137,1.022
	c0,0.023,0.295,0.023,0.273,0c0-0.159-0.023-0.796-0.023-1c0-0.387,0.045-1.114,0.114-1.364c0-0.068-0.273-0.022-0.273,0
	c-0.159,0.75-0.295,0.841-2.228,0.841h-1.183v-2.183c0-1.114,0.045-1.751,0.114-2.16h1.5c2.205,0,2.479,0.409,2.592,1.183
	c0.023,0,0.296,0.022,0.296,0c-0.022-0.137-0.022-0.637-0.022-0.819c0-0.34,0.022-0.841,0.091-1.091
	c-0.91,0.068-2.046,0.137-3.252,0.137c-1.682,0-3.615-0.022-4.842-0.137c-0.091,0-0.046,0.272,0,0.296
	c1.728,0.182,1.887,0.455,1.887,2.683v5.139c0,2.229-0.159,2.479-1.887,2.683c-0.046,0-0.091,0.273,0,0.273
	c1.228-0.091,3.229-0.113,4.911-0.113c1.228,0,2.273,0.09,2.888,0.09c0.25,0,0.341-0.045,0.409-0.34
	C30.655,52.146,30.814,51.056,30.882,50.623"/>
<path fill-rule="evenodd" clip-rule="evenodd" fill="#FFFFFF" d="M39.692,49.691c0-3.274-4.775-3.206-4.775-5.935
	c0-1.092,0.819-1.638,1.911-1.638c1.228,0,2.046,0.91,2.25,2.184c0,0.045,0.273,0.045,0.273,0c0-1.114-0.136-2.047-0.25-2.115
	c-0.568-0.34-1.183-0.613-2.137-0.613c-1.978,0-3.32,1.568-3.32,3.092c0,3.115,4.843,3.115,4.843,5.957
	c0,1.137-0.841,1.91-2.069,1.91c-1.773,0-2.66-1.41-2.796-3.184c0-0.022-0.273-0.045-0.273,0.023
	c-0.045,1.182-0.136,2.433-0.067,2.501c0.863,0.75,1.796,1.205,2.979,1.205C38.328,53.079,39.692,51.51,39.692,49.691"/>
<path fill-rule="evenodd" clip-rule="evenodd" fill="#FFFFFF" d="M52.28,41.346c0-0.045-0.272-0.045-0.272,0
	c-0.137,0.592-0.205,0.637-2.66,0.637h-4.798c-2.478,0-2.501-0.066-2.614-0.637c0-0.045-0.296-0.045-0.273,0
	c0.091,0.387,0.091,0.705,0.091,0.888c0,0.478-0.045,1.364-0.114,1.728c0,0.046,0.273,0.023,0.273,0
	c0.205-0.818,0.887-1.342,2.637-1.342h1.615v7.276c0,2.206-0.228,2.524-1.751,2.683c-0.046,0-0.091,0.273,0.023,0.273
	c0.681-0.091,1.773-0.113,2.729-0.113c0.705,0,1.841,0.045,2.364,0.113c0.091,0,0.068-0.273,0.023-0.273
	c-1.591-0.136-1.75-0.591-1.75-2.683v-7.276h1.546c1.819,0,2.41,0.568,2.546,1.342c0,0.023,0.272,0.046,0.272,0
	c-0.022-0.227-0.045-0.796-0.045-1.068C52.121,42.324,52.189,41.71,52.28,41.346"/>
<path fill-rule="evenodd" clip-rule="evenodd" fill="#FFFFFF" d="M62.419,50.623c0-0.045-0.273-0.045-0.295-0.022
	c-0.25,1.136-0.319,1.546-2.911,1.546h-0.864c-0.773,0-0.955-0.205-0.955-2.479V47.35h1.182c1.842,0,1.978,0.113,2.138,1.022
	c0,0.023,0.295,0.023,0.273,0c0-0.159-0.024-0.796-0.024-1c0-0.387,0.046-1.114,0.115-1.364c0-0.068-0.273-0.022-0.273,0
	c-0.159,0.75-0.295,0.841-2.228,0.841h-1.182v-2.183c0-1.114,0.045-1.751,0.114-2.16h1.5c2.205,0,2.479,0.409,2.592,1.183
	c0.023,0,0.295,0.022,0.295,0c-0.022-0.137-0.022-0.637-0.022-0.819c0-0.34,0.022-0.841,0.091-1.091
	c-0.91,0.068-2.046,0.137-3.252,0.137c-1.682,0-3.615-0.022-4.843-0.137c-0.091,0-0.045,0.272,0,0.296
	c1.729,0.182,1.888,0.455,1.888,2.683v5.139c0,2.229-0.159,2.479-1.888,2.683c-0.045,0-0.091,0.273,0,0.273
	c1.229-0.091,3.229-0.113,4.911-0.113c1.229,0,2.274,0.09,2.888,0.09c0.25,0,0.341-0.045,0.41-0.34
	C62.191,52.146,62.351,51.056,62.419,50.623"/>
<path fill-rule="evenodd" clip-rule="evenodd" fill="#FFFFFF" d="M76.218,52.881c0.092,0,0.046-0.273,0-0.273
	c-1.956,0-4.138-2.984-4.979-5.348c1.296-0.544,2.091-1.631,2.091-2.764c0-1.767-1.569-2.695-4.478-2.695
	c-1.819,0-3.753,0.068-4.457,0.295c-0.091,0.023-0.023,0.295,0.022,0.271c0.251-0.045,0.455-0.068,0.637-0.068
	c0.796,0,1.183,0.431,1.183,2.469v5.128c0,2.229-0.251,2.523-1.751,2.683c-0.045,0-0.091,0.296,0,0.273
	c0.704-0.09,1.774-0.114,2.751-0.114c0.705,0,1.842,0.046,2.365,0.114c0.091,0.022,0.045-0.273,0-0.273
	c-1.569-0.136-1.751-0.568-1.751-2.683v-1.979c0.273,0.023,0.364,0.023,0.727,0.023c0.364,0,0.887-0.068,1.274-0.159
	C70.579,50.464,72.626,52.881,76.218,52.881 M71.67,44.949c0,1.586-0.863,2.491-3.114,2.491c-0.319,0-0.432-0.022-0.705-0.022
	v-2.809c0-1.291,0.069-1.947,0.159-2.265c0.296-0.022,0.341-0.046,0.614-0.046C70.579,42.299,71.67,43.002,71.67,44.949"/>
<path fill-rule="evenodd" clip-rule="evenodd" fill="#FFFFFF" d="M89.495,42.098c0.021-0.023,0.091-0.297-0.023-0.297
	c-0.5,0.068-1.272,0.137-1.977,0.137c-0.979,0-1.524-0.022-2.207-0.137c-0.09,0-0.068,0.273,0,0.297
	c1.501,0.158,1.729,0.657,1.729,2.677v5.468l-7.799-8.305c-0.955,0-2.206-0.022-2.91-0.137c-0.091,0-0.046,0.273,0,0.297
	c0.796,0.09,2.205,1.179,2.205,1.973v5.831c0,1.997-0.227,2.519-1.751,2.677c-0.045,0-0.068,0.273,0,0.273
	c0.705-0.091,1.41-0.114,2.388-0.114c0.682,0,1.295,0.046,1.819,0.114c0.09,0,0.045-0.273,0.022-0.273
	c-1.591-0.136-1.773-0.793-1.773-2.677v-5.649l8.367,8.736c0.091,0.068,0.296,0.068,0.296,0.022
	c-0.091-0.728-0.137-2.271-0.137-3.109v-5.127C87.744,42.891,87.902,42.21,89.495,42.098"/>
<path fill-rule="evenodd" clip-rule="evenodd" fill="#FFFFFF" d="M110.459,52.586c-2.525,0-6.049-3.623-7.23-6.941
	c2.318-0.956,3.091-2.797,3.091-4.07c0-2.479-2.591-3.456-5.774-3.456c-2.433,0-4.616,0.067-5.525,0.364
	c-0.112,0.045-0.045,0.271,0.023,0.271c0.317-0.045,0.591-0.09,0.841-0.09c1.296,0,1.365,0.795,1.365,3.433v6.844
	c0,3.502-0.091,3.479-2.139,3.684c-0.046,0.022-0.091,0.296,0.023,0.272c0.932-0.113,1.956-0.158,3.252-0.158
	c0.954,0,2.069,0.068,2.75,0.158c0.137,0.023,0.068-0.25,0.023-0.272c-2.114-0.159-2.138-0.317-2.138-3.684v-2.751
	c0.363,0.045,0.455,0.045,0.955,0.045c0.479,0,1.228-0.045,1.774-0.158c0.977,3.592,3.546,6.782,8.685,6.782
	C110.573,52.858,110.503,52.586,110.459,52.586 M104.501,42.552c0,1.933-1.183,3.206-4.547,3.206c-0.409,0-0.569,0-0.933-0.022
	v-3.843c0-1.729,0.068-2.797,0.204-3.252c0.387-0.023,0.66-0.045,1.023-0.045C102.478,38.596,104.501,39.391,104.501,42.552"/>
<path fill-rule="evenodd" clip-rule="evenodd" fill="#FFFFFF" d="M115.915,52.578c-1.592-0.136-1.751-0.59-1.751-2.677v-5.128
	c0-2.088,0.159-2.563,1.751-2.677c0.021-0.022,0.091-0.296-0.023-0.296c-0.5,0.068-1.659,0.137-2.342,0.137
	c-0.978,0-2.047-0.022-2.751-0.137c-0.114,0-0.046,0.273-0.023,0.296c1.523,0.159,1.751,0.454,1.751,2.677v5.128
	c0,2.2-0.228,2.519-1.751,2.677c-0.022,0-0.091,0.273,0.023,0.273c0.704-0.091,1.773-0.114,2.751-0.114
	c0.683,0,1.842,0.046,2.342,0.114C116.006,52.852,115.937,52.578,115.915,52.578"/>
<path fill-rule="evenodd" clip-rule="evenodd" fill="#FFFFFF" d="M129.688,42.096c0.046-0.022,0.091-0.295,0-0.295
	c-0.705,0.114-0.862,0.137-1.841,0.137c-0.706,0-1.387-0.068-1.91-0.137c-0.091,0-0.046,0.272,0,0.295
	c0.796,0.068,1.16,0.25,1.16,0.658c0,0.409-0.069,0.749-0.592,2.02l-2.455,5.763l-2.479-5.763c-0.433-1.089-0.568-1.701-0.568-2.02
	c0-0.477,0.432-0.566,1.228-0.658c0.068-0.022,0.091-0.295,0-0.295c-0.682,0.114-1.888,0.137-2.864,0.137
	c-0.684,0-1.684-0.068-2.205-0.137c-0.093,0-0.046,0.272,0,0.295c1.362,0.114,1.863,0.749,2.683,2.678l3.5,8.215
	c0.046,0.09,0.183,0.068,0.205,0.022l3.592-8.237C128.03,42.709,128.643,42.21,129.688,42.096"/>
<path fill-rule="evenodd" clip-rule="evenodd" fill="#FFFFFF" d="M139.306,50.623c0-0.045-0.272-0.045-0.295-0.022
	c-0.25,1.136-0.32,1.546-2.911,1.546h-0.864c-0.771,0-0.954-0.205-0.954-2.479V47.35h1.182c1.843,0,1.978,0.113,2.137,1.022
	c0,0.023,0.296,0.023,0.273,0c0-0.159-0.022-0.796-0.022-1c0-0.387,0.045-1.114,0.114-1.364c0-0.068-0.273-0.022-0.273,0
	c-0.159,0.75-0.296,0.841-2.229,0.841h-1.182v-2.183c0-1.114,0.045-1.751,0.112-2.16h1.501c2.206,0,2.479,0.409,2.592,1.183
	c0.023,0,0.297,0.022,0.297,0c-0.022-0.137-0.022-0.637-0.022-0.819c0-0.34,0.022-0.841,0.09-1.091
	c-0.909,0.068-2.046,0.137-3.251,0.137c-1.683,0-3.616-0.022-4.843-0.137c-0.091,0-0.046,0.272,0,0.296
	c1.728,0.182,1.887,0.455,1.887,2.683v5.139c0,2.229-0.159,2.479-1.887,2.683c-0.046,0-0.091,0.273,0,0.273
	c1.227-0.091,3.229-0.113,4.911-0.113c1.228,0,2.273,0.09,2.887,0.09c0.251,0,0.341-0.045,0.41-0.34
	C139.079,52.146,139.237,51.056,139.306,50.623"/>
<path fill-rule="evenodd" clip-rule="evenodd" fill="#FFFFFF" d="M153.104,53.102c0.092,0,0.045-0.272,0-0.272
	c-1.955,0-4.138-3.206-4.979-5.57c1.296-0.544,2.092-1.63,2.092-2.763c0-1.766-1.569-2.695-4.479-2.695
	c-1.819,0-3.753,0.068-4.457,0.295c-0.092,0.022-0.023,0.294,0.021,0.271c0.251-0.045,0.456-0.068,0.637-0.068
	c0.796,0,1.184,0.432,1.184,2.469v5.128c0,2.229-0.251,2.524-1.751,2.683c-0.045,0-0.091,0.296,0,0.273
	c0.705-0.091,1.773-0.113,2.751-0.113c0.705,0,1.842,0.045,2.365,0.113c0.091,0.022,0.045-0.273,0-0.273
	c-1.569-0.136-1.752-0.568-1.752-2.683v-1.978c0.273,0.022,0.364,0.022,0.728,0.022c0.365,0,0.887-0.068,1.274-0.159
	C147.467,50.464,149.513,53.102,153.104,53.102 M148.558,44.949c0,1.585-0.864,2.491-3.115,2.491c-0.317,0-0.432-0.023-0.705-0.023
	v-2.808c0-1.291,0.068-1.947,0.16-2.264c0.295-0.023,0.34-0.047,0.613-0.047C147.467,42.299,148.558,43.002,148.558,44.949"/>
<path fill-rule="evenodd" clip-rule="evenodd" fill="#FFFFFF" d="M160.17,49.691c0-3.274-4.775-3.206-4.775-5.935
	c0-1.092,0.819-1.638,1.91-1.638c1.229,0,2.046,0.91,2.251,2.184c0,0.045,0.273,0.045,0.273,0c0-1.114-0.138-2.047-0.25-2.115
	c-0.569-0.34-1.184-0.613-2.139-0.613c-1.978,0-3.318,1.568-3.318,3.092c0,3.115,4.843,3.115,4.843,5.957
	c0,1.137-0.841,1.91-2.069,1.91c-1.772,0-2.661-1.41-2.797-3.184c0-0.022-0.272-0.045-0.272,0.023
	c-0.045,1.182-0.137,2.433-0.068,2.501c0.864,0.75,1.796,1.205,2.979,1.205C158.806,53.079,160.17,51.51,160.17,49.691"/>
<path fill-rule="evenodd" clip-rule="evenodd" fill="#FFFFFF" d="M34.168,63.513c0-0.046-0.185-0.031-0.185-0.015
	c-0.092,1.199-1.246,2.045-2.431,2.045c-1.63,0-3.198-1.23-3.198-3.799c0-2.092,1.168-3.245,2.875-3.245
	c1.692,0,2.507,1.138,2.692,2.046c0.015,0.029,0.2,0.029,0.2-0.016c-0.046-0.692-0.154-1.723-0.246-1.785
	c-0.231-0.169-1.323-0.614-2.384-0.614c-2.522,0-4.276,1.983-4.276,4.06c0,1.97,1.677,3.723,4.229,3.723
	c1.385,0,2.076-0.309,2.477-0.615C34.014,65.234,34.122,64.22,34.168,63.513"/>
<path fill-rule="evenodd" clip-rule="evenodd" fill="#FFFFFF" d="M45.66,61.913c0-1.984-1.722-3.783-3.999-3.783
	c-2.415,0-4.199,1.938-4.199,4.015c0,1.983,1.738,3.768,3.999,3.768C43.892,65.912,45.66,63.975,45.66,61.913 M44.538,62.405
	c0,2.092-1.185,3.138-2.814,3.138c-1.523,0-3.122-1.323-3.122-3.891c0-2.107,1.184-3.153,2.814-3.153
	C42.938,58.499,44.538,59.837,44.538,62.405"/>
<path fill-rule="evenodd" clip-rule="evenodd" fill="#FFFFFF" d="M57.223,58.483c0.015-0.015,0.062-0.2-0.015-0.2
	c-0.339,0.047-0.861,0.093-1.338,0.093c-0.661,0-1.03-0.015-1.491-0.093c-0.062,0-0.046,0.186,0,0.2
	c1.015,0.107,1.168,0.445,1.168,1.812v3.697l-5.276-5.616c-0.646,0-1.491-0.015-1.968-0.093c-0.062,0-0.031,0.186,0,0.2
	c0.538,0.062,1.491,0.798,1.491,1.335v3.944c0,1.351-0.154,1.703-1.184,1.811c-0.031,0-0.046,0.185,0,0.185
	c0.477-0.061,0.954-0.076,1.615-0.076c0.461,0,0.876,0.03,1.23,0.076c0.062,0,0.031-0.185,0.015-0.185
	c-1.076-0.093-1.2-0.537-1.2-1.811v-3.821l5.661,5.91c0.061,0.045,0.2,0.045,0.2,0.015c-0.062-0.492-0.093-1.535-0.093-2.104v-3.468
	C56.038,59.021,56.146,58.561,57.223,58.483"/>
<path fill-rule="evenodd" clip-rule="evenodd" fill="#FFFFFF" d="M64.609,63.62c0-2.214-3.23-2.169-3.23-4.015
	c0-0.738,0.554-1.106,1.292-1.106c0.83,0,1.384,0.614,1.523,1.477c0,0.03,0.184,0.03,0.184,0c0-0.754-0.092-1.384-0.169-1.431
	c-0.385-0.23-0.8-0.415-1.446-0.415c-1.338,0-2.246,1.062-2.246,2.091c0,2.107,3.276,2.107,3.276,4.03
	c0,0.769-0.569,1.292-1.399,1.292c-1.2,0-1.8-0.954-1.892-2.154c0-0.015-0.185-0.029-0.185,0.017c-0.03,0.8-0.092,1.646-0.046,1.691
	c0.584,0.507,1.215,0.815,2.015,0.815C63.686,65.912,64.609,64.852,64.609,63.62"/>
<path fill-rule="evenodd" clip-rule="evenodd" fill="#FFFFFF" d="M73.56,64.251c0-0.031-0.185-0.031-0.2-0.015
	c-0.169,0.768-0.215,1.045-1.968,1.045h-0.585c-0.523,0-0.646-0.139-0.646-1.676v-1.568h0.8c1.246,0,1.338,0.076,1.446,0.691
	c0,0.016,0.199,0.016,0.184,0c0-0.107-0.015-0.539-0.015-0.677c0-0.262,0.03-0.754,0.077-0.923c0-0.046-0.184-0.016-0.184,0
	c-0.109,0.508-0.201,0.568-1.508,0.568h-0.8v-1.476c0-0.755,0.031-1.185,0.077-1.461h1.015c1.492,0,1.676,0.276,1.753,0.8
	c0.016,0,0.2,0.016,0.2,0c-0.015-0.094-0.015-0.432-0.015-0.555c0-0.23,0.015-0.568,0.061-0.738
	c-0.615,0.047-1.384,0.094-2.199,0.094c-1.138,0-2.445-0.017-3.276-0.094c-0.061,0-0.031,0.186,0,0.201
	c1.169,0.123,1.277,0.307,1.277,1.814v3.476c0,1.507-0.108,1.677-1.277,1.815c-0.031,0-0.061,0.184,0,0.184
	c0.831-0.061,2.184-0.076,3.322-0.076c0.831,0,1.538,0.062,1.954,0.062c0.169,0,0.23-0.031,0.276-0.231
	C73.406,65.281,73.514,64.543,73.56,64.251"/>
<path fill-rule="evenodd" clip-rule="evenodd" fill="#FFFFFF" d="M84.652,65.927c0.062,0,0.031-0.184,0-0.184
	c-1.321,0-2.798-2.169-3.366-3.768c0.876-0.368,1.414-1.104,1.414-1.869c0-1.194-1.062-1.823-3.03-1.823
	c-1.23,0-2.538,0.046-3.014,0.199c-0.062,0.016-0.016,0.199,0.015,0.184c0.169-0.03,0.308-0.045,0.431-0.045
	c0.538,0,0.8,0.291,0.8,1.669v3.469c0,1.507-0.17,1.707-1.184,1.815c-0.031,0-0.062,0.199,0,0.184
	c0.476-0.061,1.199-0.076,1.861-0.076c0.476,0,1.245,0.03,1.599,0.076c0.062,0.016,0.031-0.184,0-0.184
	c-1.062-0.094-1.184-0.385-1.184-1.815V62.42c0.184,0.017,0.246,0.017,0.492,0.017c0.246,0,0.599-0.047,0.861-0.108
	C80.839,64.143,82.224,65.927,84.652,65.927 M81.577,60.412c0,1.073-0.584,1.686-2.106,1.686c-0.216,0-0.293-0.016-0.477-0.016
	v-1.898c0-0.874,0.046-1.318,0.107-1.533c0.2-0.015,0.231-0.029,0.415-0.029C80.839,58.621,81.577,59.096,81.577,60.412"/>
<path fill-rule="evenodd" clip-rule="evenodd" fill="#FFFFFF" d="M94.129,58.482c0.031-0.015,0.062-0.199,0-0.199
	c-0.478,0.076-0.583,0.093-1.245,0.093c-0.477,0-0.939-0.046-1.291-0.093c-0.062,0-0.032,0.185,0,0.199
	c0.537,0.047,0.783,0.17,0.783,0.445c0,0.276-0.046,0.507-0.4,1.366l-1.661,3.897l-1.676-3.897
	c-0.293-0.737-0.384-1.151-0.384-1.366c0-0.322,0.292-0.383,0.83-0.445c0.047-0.015,0.061-0.199,0-0.199
	c-0.461,0.076-1.276,0.093-1.938,0.093c-0.461,0-1.138-0.046-1.492-0.093c-0.061,0-0.029,0.185,0,0.199
	c0.924,0.077,1.262,0.508,1.815,1.812l2.369,5.558c0.031,0.061,0.123,0.045,0.138,0.015l2.431-5.572
	C93.006,58.897,93.422,58.56,94.129,58.482"/>
<path fill-rule="evenodd" clip-rule="evenodd" fill="#FFFFFF" d="M103.146,65.758c0.062,0,0.031-0.185,0-0.185
	c-1.107-0.093-1.339-0.661-1.769-1.815l-2.138-5.582c-0.016-0.047-0.108-0.047-0.123,0l-2.477,5.582
	c-0.584,1.309-0.983,1.754-1.754,1.815c-0.03,0-0.061,0.185,0,0.185c0.493-0.061,0.601-0.076,1.247-0.076
	c0.476,0,0.953,0.03,1.291,0.076c0.062,0,0.046-0.185,0-0.185c-0.523-0.046-0.815-0.093-0.815-0.369
	c0-0.308,0.169-0.769,0.461-1.446l0.354-0.846h2.477l0.291,0.846c0.216,0.57,0.385,1.108,0.385,1.462
	c0,0.323-0.307,0.292-0.86,0.354c-0.031,0-0.062,0.185,0,0.185c0.476-0.061,1.276-0.076,1.922-0.076
	C102.131,65.682,102.792,65.712,103.146,65.758 M99.777,62.559h-2.214l1.214-2.768L99.777,62.559z"/>
<path fill-rule="evenodd" clip-rule="evenodd" fill="#8E7534" d="M92.126,18.761l0.02,2.724c-0.216-0.057-1.139-0.122-2.614,0.084
	c-1.697,0.237-3.955,1.123-5.111,1.393c-1.155,0.27-1.662,0.27-2.122,0.101c-0.46-0.169-0.473-0.561-0.473-0.561
	s-0.137-2.223-0.068-2.73c0.068-0.507,0.372-0.663,0.729-0.933c0.358-0.27,1.203-0.561,1.562-0.561c0.357,0,2.394,1.42,4.665,1.42
	C90.984,19.698,92.126,18.761,92.126,18.761 M89.069,15.818c1.734,0.029,2.839,0.468,3.076,0.572v1.25
	c-0.232,0.269-1.308,1.165-3.378,1.135c-2.358-0.034-3.449-1.261-3.449-1.261S87.104,15.783,89.069,15.818 M90.041,13.987
	c0.781-0.831,1.957-1.216,2.104-1.245v2.609c-0.096-0.042-0.649-0.279-1.344-0.432c-0.764-0.17-1.461-0.204-1.461-0.204
	S89.702,14.349,90.041,13.987 M89.77,9.104c1.396-0.953,2.161-2.071,2.376-2.47v2.873c-0.19-0.111-0.483-0.217-0.988-0.296
	C90.41,9.093,90.275,9.131,89.77,9.104 M87.507,10.352c0,0,0.307-0.093,0.96-0.449c0.655-0.022,1.197-0.026,2.155,0.081
	c0.526,0.059,1.279,0.213,1.523,0.398v1.359c-0.243,0.063-0.91,0.311-1.518,0.632c-0.566,0.298-1.374,1.014-1.769,1.416
	c-0.925,0.943-2.681,1.425-2.681,1.425s0.536-1.072,0.874-2.397C87.391,11.492,87.507,10.352,87.507,10.352 M86.331,10.772
	c0,0-0.259,2.006-0.867,3.311c-0.609,1.305-0.989,1.782-1.45,2.106c-0.459,0.324-2.581,1.156-2.581,1.156s-0.272-3.231,1.391-4.535
	C84.485,11.505,86.331,10.772,86.331,10.772 M92.146,4.418v0.637c-0.086,0.153-0.356,0.747-1.484,2.021
	c-1.141,1.289-2.991,2.061-2.991,2.061s0.196-1.251,0.721-2.344c0.649-1.346,1.424-2.005,1.66-2.182
	c0.593-0.054,1.354-0.112,1.873-0.175L92.146,4.418z M82.724,11.302c0,0-0.021-1.677,0.372-2.17
	c0.392-0.494,1.682-1.305,2.581-2.393c0.716-0.866,0.948-1.611,1.012-1.88c0.725-0.037,1.42-0.079,2.083-0.126
	c-0.222,0.232-0.899,0.995-1.471,2.188c-0.546,1.143-0.786,2.592-0.786,2.592s-0.836,0.342-1.836,0.733
	C83.678,10.638,82.724,11.302,82.724,11.302 M82.64,6.048c0-0.527,0.009-0.903,0.014-1.054c1.07-0.02,2.105-0.051,3.096-0.092
	c-0.098,0.25-0.429,1.023-1.059,1.682c-0.764,0.797-1.48,1.067-1.615,1.067C82.938,7.651,82.64,6.744,82.64,6.048 M79.119,8.896
	c0,0,1.091,0.56,1.584,1.168c0.494,0.608,0.595,0.947,0.561,1.271c-0.034,0.325-0.473,1.034-0.865,1.663s-0.595,1.088-0.866,1.088
	c-0.27,0-0.391-0.237-0.729-0.663c-0.339-0.425-0.765-1-0.765-1s-0.195-0.927,0.229-2.021C78.606,9.529,79.119,8.896,79.119,8.896
	 M79.362,5.022l0.342-0.004l0.346,0c0.61,0,1.212-0.004,1.805-0.011c-0.022,0.127-0.171,1.044,0.064,2.217
	c0.232,1.159-0.331,2.391-0.331,2.391s-0.351-0.461-0.843-0.853C80.251,8.37,79.51,8.077,79.51,8.077s0.252-0.616,0.252-1.381
	C79.762,5.682,79.362,5.022,79.362,5.022 M77.348,6.659c-0.723-0.695-1.051-1.494-1.124-1.692c0.656,0.019,1.329,0.032,2.014,0.04
	l0.124,0.005c0,0,0.481,0.551,0.497,1.351c0.018,0.867-0.21,1.298-0.21,1.298S78.232,7.511,77.348,6.659 M74.407,7.313
	c-0.23-1.442-0.846-2.142-1.058-2.458c0.61,0.031,1.24,0.059,1.887,0.081c0.029,0.108,0.287,1.018,1.245,2.071
	c1.021,1.121,1.768,1.472,1.768,1.472s-0.558,0.64-0.962,1.636c-0.37,0.915-0.396,1.702-0.396,1.702s-0.176-0.089-0.548-0.258
	C75.971,11.39,75.41,11.2,75.41,11.2s-0.468-0.493-0.663-1.203C74.55,9.279,74.678,9.01,74.407,7.313 M72.245,4.793
	c0.186,0.218,0.541,0.667,0.839,1.25c0.426,0.832,0.44,1.562,0.44,1.562s-0.967-0.325-2.001-1.189
	c-0.785-0.657-1.122-1.429-1.238-1.765C70.905,4.703,71.56,4.75,72.245,4.793 M69.883,8.024c-1.005-1.603-2.161-2.202-2.3-2.265
	V4.361c0.556,0.075,1.163,0.145,1.817,0.208c0.103,0.427,0.482,1.641,1.596,2.508c1.372,1.068,2.615,1.426,2.615,1.426
	s0.035,0.372,0.102,1.035c0.067,0.662,0.338,1.223,0.338,1.223s-0.33-0.113-1.234-0.25c-1.058-0.162-1.855-0.187-1.855-0.187
	S70.84,9.551,69.883,8.024 M71.342,11.324c0.363,1.141,0.911,2.337,0.911,2.337s1.274,0.713,2.261,1.768
	c0.987,1.055,1.166,1.625,1.166,1.625s0.119,0.221,0.392,0.359c0.229,0.06,0.44,0.135,1,0.304c0.562,0.169,0.899,0.325,0.899,0.325
	c0.313,0.115,0.359-0.358,0.359-0.358s0.359-2.675-2.154-4.615C73.815,11.246,71.342,11.324,71.342,11.324 M68.771,9.925
	c-0.55-0.2-0.893-0.373-1.188-0.585V6.836c0.183,0.078,0.79,0.355,1.583,1.619c0.484,0.771,0.646,1.37,0.806,1.75
	C69.675,10.154,69.243,10.097,68.771,9.925 M69.216,12.642c-0.844-0.085-1.461-0.038-1.633-0.02v-2.276
	c0.265,0.164,0.679,0.381,1.235,0.563c0.658,0.215,1.212,0.321,1.554,0.371c0.234,0.766,0.456,1.414,0.456,1.414
	c0.12,0.292-0.242,0.208-0.242,0.208S70.216,12.744,69.216,12.642 M70.082,15.902c-1.411-0.175-2.289-0.034-2.499,0.006v-2.392
	c0.295-0.037,1.78-0.215,3.477,0.556c1.654,0.751,3.167,2.594,3.167,2.594c0.18,0.251-0.017,0.358-0.125,0.341
	C73.744,16.899,71.712,16.105,70.082,15.902 M67.583,16.839c0.301-0.04,1.58-0.209,3.047,0.078c1.73,0.338,3.196,1.146,3.196,1.146
	c0.157,0.113,0.323,0.239,0.168,0.372c0,0-1.47,1.404-3.438,1.404c-1.652,0-2.685-0.84-2.973-1.108V16.839z M67.583,19.819
	c0.26,0.232,1.157,0.886,3.041,0.886c2.291,0,4.36-1.833,4.617-1.866c0.257-0.034,0.709,0.034,1.474,0.338
	c0.763,0.304,1.493,0.882,1.493,1.521v0.9c0,0-0.08,0.685-0.53,0.581c0,0-1.578-0.397-3.383-0.397c-2.661,0-6.136,1.181-6.712,1.383
	V19.819z"/>
<path fill-rule="evenodd" clip-rule="evenodd" fill="#FFFFFF" d="M114.283,58.483c0.015-0.015,0.061-0.2-0.017-0.2
	c-0.338,0.047-0.862,0.093-1.338,0.093c-0.661,0-1.03-0.015-1.492-0.093c-0.062,0-0.046,0.186,0,0.2
	c1.016,0.107,1.169,0.445,1.169,1.812v3.697l-5.274-5.616c-0.646,0-1.492-0.015-1.97-0.093c-0.061,0-0.029,0.186,0,0.2
	c0.538,0.062,1.492,0.798,1.492,1.335v3.944c0,1.351-0.153,1.703-1.184,1.811c-0.032,0-0.046,0.185,0,0.185
	c0.476-0.061,0.953-0.076,1.615-0.076c0.461,0,0.876,0.03,1.229,0.076c0.062,0,0.031-0.185,0.015-0.185
	c-1.075-0.093-1.198-0.537-1.198-1.811v-3.821l5.66,5.91c0.061,0.045,0.199,0.045,0.199,0.015c-0.062-0.492-0.093-1.535-0.093-2.104
	v-3.468C113.098,59.021,113.206,58.561,114.283,58.483"/>
<path fill-rule="evenodd" clip-rule="evenodd" fill="#FFFFFF" d="M123.819,63.513c0-0.046-0.185-0.031-0.185-0.015
	c-0.093,1.199-1.246,2.045-2.43,2.045c-1.631,0-3.199-1.23-3.199-3.799c0-2.092,1.168-3.245,2.876-3.245
	c1.692,0,2.507,1.138,2.691,2.046c0.016,0.029,0.2,0.029,0.2-0.016c-0.047-0.692-0.153-1.723-0.247-1.785
	c-0.23-0.169-1.322-0.614-2.384-0.614c-2.522,0-4.275,1.983-4.275,4.06c0,1.97,1.677,3.723,4.229,3.723
	c1.384,0,2.076-0.309,2.477-0.615C123.666,65.234,123.773,64.22,123.819,63.513"/>
<path fill-rule="evenodd" clip-rule="evenodd" fill="#FFFFFF" d="M134.595,58.406c-0.246-0.092-0.508-0.139-0.754-0.139
	c-1.354,0-2.552,1.092-3.214,3.076c-0.415-1.784-1.799-3.152-3.477-3.152c-0.354,0-0.736,0.076-1.106,0.215
	c-0.062,0-0.017,0.186,0,0.186c0.139-0.031,0.262-0.047,0.415-0.047c1.754,0,3.275,2.076,3.275,4.922v0.291
	c0,1.492-0.153,1.708-1.185,1.815c-0.014,0-0.061,0.2,0.017,0.185c0.477-0.061,1.199-0.076,1.86-0.076c0.462,0,1.246,0.03,1.6,0.076
	c0.062,0.016,0.031-0.185,0-0.185c-1.076-0.093-1.184-0.384-1.184-1.815v-0.291c0-2.614,1.368-4.938,3.214-4.938
	c0.2,0,0.339,0.016,0.523,0.062C134.609,58.592,134.657,58.406,134.595,58.406"/>
<path fill-rule="evenodd" clip-rule="evenodd" fill="#005E99" d="M68.634,27.711l5.501-1.719c0,0,1.596-0.527,3.157-0.527
	s3.359,0.562,3.359,0.562l3.292,1c0,0,0.952,0.257,1.886,0.257c0.933,0,2.324-0.323,3.11-0.556c1.055-0.313,3.137-0.972,3.137-0.972
	s-0.026,0.985-0.842,1.839c-0.662,0.693-1.533,1.009-1.533,1.009l-0.617,0.218c-1.105,0.39-2.296,0.011-2.729-0.133
	c-0.912-0.305-3.096-1.102-4.639-1.52c-0.575-0.155-1.214-0.38-2.695-0.38c-1.413,0-2.865,0.562-2.865,0.562l-4.877,1.784
	c0,0-0.482-0.162-1.279-0.499C69.203,28.298,68.634,27.711,68.634,27.711"/>
<path fill-rule="evenodd" clip-rule="evenodd" fill="#005E99" d="M73.303,29.965l4.192-1.632c0,0,1.111-0.446,2.503-0.446
	c1.392,0,3.422,0.795,3.422,0.795l3.238,1.233l-1.29,0.47l-1.159-0.511c-0.324-0.143-1.464-0.703-3.103-0.703
	c-1.241,0-3.352,0.881-3.352,0.881l-1.957,0.744L73.303,29.965z"/>
<path fill-rule="evenodd" clip-rule="evenodd" fill="#005E99" d="M77.539,31.527l2.608-0.954c0,0,0.766-0.254,1.855-0.254
	c1.087,0,2.034,0.645,2.034,0.645l-4.041,1.432L77.539,31.527z"/>
<path fill-rule="evenodd" clip-rule="evenodd" fill="#005E99" d="M67.62,24.476c0,0,3.358-1.437,6.901-1.516
	c2.039-0.046,3.568,0.461,3.568,0.461l2.718,0.798c0,0,0.928,0.359,2.271,0.29c1.83-0.093,6.181-1.794,7.725-1.915
	c1.152-0.091,1.441,0.097,1.441,0.097v1.596l-4.157,1.122c0,0-2.06,0.565-3.092,0.565c-1.181,0-2.918-0.498-2.918-0.498l-3.92-1.088
	c0,0-0.828-0.183-1.66-0.183c-2.531,0-5.756,1.216-5.756,1.216l-2.75,0.946c0,0-0.217-0.304-0.304-0.808
	C67.554,24.787,67.62,24.476,67.62,24.476"/>
</svg>
